<svg xmlns="http://www.w3.org/2000/svg" viewBox="0 0 56 49">
<style>.st0{fill-rule:evenodd;clip-rule:evenodd;fill:#FFFFFF;}</style>
<path class="st0" d="M42.4,37.8L32.2,27.6c-0.2-0.2-0.4-0.3-0.7-0.3c1.9-1.9,3-4.5,3-7.4c0-5.8-4.7-10.6-10.6-10.6
	c-5.8,0-10.6,4.7-10.6,10.6c0,5.8,4.7,10.6,10.6,10.6c2.4,0,4.6-0.8,6.4-2.2c0,0.3,0.1,0.6,0.3,0.8l10.2,10.2c0.4,0.4,1.1,0.4,1.5,0
	C42.8,38.9,42.8,38.3,42.4,37.8z M23.9,28.6c-4.8,0-8.7-3.9-8.7-8.7s3.9-8.7,8.7-8.7c4.8,0,8.7,3.9,8.7,8.7S28.7,28.6,23.9,28.6z"/>
</svg>